<svg id="Layer_1" data-name="Layer 1" xmlns="http://www.w3.org/2000/svg" viewBox="0 0 507.05 713.75"><defs><style>.cls-1{fill:#e6a429;}.cls-2{fill:#f1bf23;}.cls-3{fill:#fff;}.cls-4{fill:#ebebeb;}.cls-5{fill:#231f20;}</style></defs><title>javascript-logo</title><path class="cls-1" d="M628.52,158h-507L169,673.46l206,58.42,206-58.42Z" transform="translate(-121.48 -18.13)"/><path class="cls-2" d="M375,200v488.2l166.88-47.28L582.44,200Z" transform="translate(-121.48 -18.13)"/><path class="cls-3" d="M507.73,263.23H251.15l-17.87,193,.37-1.19h218l-7.11,81.65-69.55,20L304.4,536.36l-4.23-49.42H236.1l9.14,98.76L375,622.53,504.76,585.7l17.87-193.83H291.29l3-64.58H454.77l2.4,37H521.8Z" transform="translate(-121.48 -18.13)"/><path class="cls-4" d="M375,263.23H251.15l-17.87,193,.37-1.19H375v-63H300.31l3-64.58H375ZM300.31,486.94H236.1l9.14,98.7L375,622.41V556.75L304.4,536.36Z" transform="translate(-121.48 -18.13)"/><path class="cls-5" d="M325.67,82H280.53v32.41H358V18.13H325.67ZM469.44,18.64H390.76V52.33c10.51,10.5,16,15.56,31.46,30.77H390.76v30.72h78.68V83.16L438,52.39h31.46Z" transform="translate(-121.48 -18.13)"/></svg>